# AST/ASF file generated using VICON BodyLanguage
# -----------------------------------------------
:version 1.10
:name VICON
:units
  mass 1.0
  length 0.45
  angle deg
:documentation
   .ast/.asf automatically generated from VICON data using
   VICON BodyBuilder and BodyLanguage model FoxedUp or BRILLIANT.MOD
:root
   order TX TY TZ RX RY RZ
   axis XYZ
   position 0 0 0  
   orientation 0 0 0 
:bonedata
  begin
     id 1 
     name lhipjoint
     direction 0.671379 -0.66392 0.329334 
     length 2.38647 
     axis 0 0 0  XYZ
  end
  begin
     id 2 
     name lfemur
     direction 0.34202 -0.939693 0  
     length 6.48179  
     axis 0 0 20  XYZ
    dof rx ry rz
    limits (-160.0 20.0)
           (-70.0 70.0)
           (-60.0 70.0)
  end
  begin
     id 3 
     name ltibia
     direction 0.34202 -0.939693 0   
     length 6.86524   
     axis 0 0 20   XYZ
    dof rx
    limits (-10.0 170.0)
  end
  begin
     id 4 
     name lfoot
     direction 0.204886 -0.562919 0.800715   
     length 1.73031   
     axis -90 7.62852e-016 20   XYZ
    dof rx rz
    limits (-45.0 90.0)
           (-70.0 20.0)
  end
  begin
     id 5 
     name ltoes
     direction 1.53548e-011 -4.21841e-011 1   
     length 0.828161   
     axis -90 7.62852e-016 20   XYZ
    dof rx
    limits (-90.0 20.0)
  end
  begin
     id 6 
     name rhipjoint
     direction -0.662732 -0.670855 0.332775   
     length 2.3618  
     axis 0 0 0  XYZ 
  end
  begin
     id 7 
     name rfemur
     direction -0.34202 -0.939693 0   
     length 6.3025   
     axis 0 0 -20   XYZ
    dof rx ry rz
    limits (-160.0 20.0)
           (-70.0 70.0)
           (-70.0 60.0)
  end
  begin
     id 8 
     name rtibia
     direction -0.34202 -0.939693 0   
     length 6.8732   
     axis 0 0 -20   XYZ
    dof rx
    limits (-10.0 170.0)
 end
 begin
     id 9 
     name rfoot
     direction -0.173856 -0.477665 0.861168   
     length 1.54784  
     axis -90 -7.62852e-016 -20   XYZ
    dof rx rz
    limits (-45.0 90.0)
           (-20.0 70.0)
  end
  begin
     id 10 
     name rtoes
     direction -1.53562e-011 -4.21802e-011 1   
     length 0.759618   
     axis -90 -7.62852e-016 -20   XYZ
    dof rx
    limits (-90.0 20.0)
  end
  begin
     id 11 
     name lowerback
     direction -0.0278357 0.999497 -0.0151789   
     length 1.97203   
     axis 0 0 0   XYZ
    dof rx ry rz
    limits (-20.0 45.0)
           (-30.0 30.0)
           (-30.0 30.0)
  end
  begin
     id 12 
     name upperback
     direction -0.00360622 0.997542 0.0699804   
     length 1.94709   
     axis 0 0 0   XYZ
    dof rx ry rz
    limits (-20.0 45.0)
           (-30.0 30.0)
           (-30.0 30.0)
  end
  begin
     id 13 
     name thorax
     direction 0.00907706 0.997048 0.0762461   
     length 1.95722   
     axis 0 0 0   XYZ
    dof rx ry rz
    limits (-20.0 45.0)
           (-30.0 30.0)
           (-30.0 30.0)
  end
  begin
     id 14 
     name lowerneck
     direction -0.0481835 0.99872 -0.0153927   
     length 1.63078   
     axis 0 0 0   XYZ
    dof rx ry rz
    limits (-20.0 45.0)
           (-30.0 30.0)
           (-30.0 30.0)
  end
  begin
     id 15 
     name upperneck
     direction 0.0859716 0.979226 -0.183644   
     length 1.62591   
     axis 0 0 0   XYZ
    dof rx ry rz
    limits (-20.0 45.0)
           (-30.0 30.0)
           (-30.0 30.0)
  end
  begin
     id 16
     name head
     direction 0.0324821 0.997629 -0.0606773  
     length 1.64811  
     axis 0 0 0   XYZ
    dof rx ry rz
    limits (-20.0 45.0)
           (-30.0 30.0)
           (-30.0 30.0)
  end
  begin
     id 17 
     name lclavicle
     direction 0.939609 0.311019 0.142835  
     length 3.70647  
     axis 0 0 0   XYZ
    dof ry rz
    limits (-20.0 10.0)
           (0.0 20.0)
  end
  begin
     id 18 
     name lhumerus
     direction 1 -4.48963e-011 -1.59838e-027   
     length 4.59207   
     axis 180 -30 -90   XYZ
    dof rx ry rz
    limits (-60.0 90.0)
           (-90.0 90.0)
           (-90.0 90.0)
  end
  begin
     id 19
     name lradius
     direction 1 -4.48957e-011 -1.3483e-026   
     length 2.98109   
     axis 180 -30 -90   XYZ
    dof rx
    limits (-10.0 170.0)
  end
  begin
     id 20
     name lwrist
     direction 1 -4.48954e-011 -3.11579e-026   
     length 1.49055   
     axis 2.00652e-014 90 90   XYZ
    dof ry
    limits (-180.0 0.0)
 end
  begin
     id 21 
     name lhand
     direction 1 -4.4911e-011 -6.23158e-026   
     length 0.480203   
     axis 3.97628e-014 90 90   XYZ
    dof rx rz
    limits (-90.0 90.0)
           (-45.0 45.0)
  end
  begin
     id 22 
     name lfingers
     direction 1 -4.48893e-011 -1.24632e-025   
     length 0.387152   
     axis 7.95256e-014 90 90   XYZ
    dof rx
    limits (0.0 90.0)
  end
  begin
     id 23
     name lthumb
     direction 0.707107 -6.35013e-011 0.707107   
     length 0.555875   
     axis -90 45 2.85299e-015   XYZ
    dof rx rz
    limits (-45.0 45.0)
           (-45.0 45.0)
  end
  begin
     id 24 
     name rclavicle
     direction -0.950396 0.30392 0.0661859   
     length 3.70894  
     axis 0 0 0   XYZ 
    dof ry rz
    limits (-10.0 20.0)
           (-20.0 0.0)
  end
  begin
     id 25 
     name rhumerus
     direction -1 -4.48957e-011 -2.96677e-027  
     length 4.76508   
     axis 180 30 90   XYZ
    dof rx ry rz
    limits (-90.0 60.0)
           (-90.0 90.0)
           (-90.0 90.0)
  end
  begin
     id 26 
     name rradius
     direction -1 -4.48974e-011 -1.44501e-026   
     length 2.78902   
     axis 180 30 90   XYZ
    dof rx
    limits (-10.0 170.0)
  end
  begin
     id 27 
     name rwrist
     direction -1 -4.48978e-011 -3.11579e-026   
     length 1.39451   
     axis 2.00652e-014 -90 -90   XYZ
    dof ry
    limits (-180.0 0.0)
  end
  begin
     id 28
     name rhand
     direction -1 -4.48956e-011 -6.23158e-026   
     length 0.721303   
     axis 3.97628e-014 -90 -90   XYZ
    dof rx rz
    limits (-90.0 90.0)
           (-45.0 45.0)
  end
  begin
     id 29
     name rfingers
     direction -1 -4.4899e-011 -1.24632e-025   
     length 0.581533   
     axis 7.95256e-014 -90 -90   XYZ
    dof rx
    limits (0.0 90.0)
  end
  begin
     id 30
     name rthumb
     direction -0.707107 -6.34911e-011 0.707107   
     length 0.834968   
     axis -90 -45 -2.85299e-015   XYZ
    dof rx rz
    limits (-45.0 45.0)
           (-45.0 45.0)
  end
:hierarchy
  begin
    root lhipjoint rhipjoint lowerback
    lhipjoint lfemur
    lfemur ltibia
    ltibia lfoot
    lfoot ltoes
    rhipjoint rfemur
    rfemur rtibia
    rtibia rfoot
    rfoot rtoes
    lowerback upperback
    upperback thorax
    thorax lowerneck lclavicle rclavicle
    lowerneck upperneck
    upperneck head
    lclavicle lhumerus
    lhumerus lradius
    lradius lwrist
    lwrist lhand lthumb
    lhand lfingers
    rclavicle rhumerus
    rhumerus rradius
    rradius rwrist
    rwrist rhand rthumb
    rhand rfingers
  end

#!OML:ASF I:\salsa\salsa 7_09\Patient 1\Session 1\dancerfemale.ASF
:FULLY-SPECIFIED
:DEGREES
1604
root 13.3198 15.6242 -8.76199 -2701.83 -165.791 -163.138
lowerback 13.4532 -1.53535 -9.14259
upperback -2.83793 -4.63754 -8.72154
thorax -10.8226 -2.00594 -3.38326
lowerneck -0.877479 5.31251 -3.17259
upperneck 25.7025 6.20148 5.93074
head 7.72943 3.10536 2.90035
rclavicle -3.15571e-015 7.95139e-016
rhumerus -41.6838 1.60203 -72.8947
rradius 98.3761
rwrist -35.3103
rhand -3.75772 52.0369
rfingers 7.12502
rthumb 21.9866 23.2665
lclavicle -3.15571e-015 7.95139e-016
lhumerus -21.7949 15.8844 75.1559
lradius 127.335
lwrist -22.7675
lhand -11.5339 -331.156
lfingers 7.12502
lthumb 14.5061 -661.683
rfemur -35.6212 3.8256 8.70537
rtibia 66.1442
rfoot -19.3393 -9.30349
rtoes -21.4143
lfemur -6.59506 15.0329 -39.0024
ltibia 28.3418
lfoot -24.2476 4.38048
ltoes -16.1695
1605
root 13.412 15.6803 -8.67476 -2701.63 -162.807 -165.926
lowerback 13.389 -1.64176 -6.33167
upperback -2.80283 -4.23628 -8.29283
thorax -10.878 -1.98176 -4.55914
lowerneck -1.12955 5.6739 -2.32318
upperneck 25.5936 6.68833 5.60344
head 7.76328 3.37916 2.68387
rclavicle 2.94698e-014 -5.56597e-015
rhumerus -41.0529 1.52372 -72.3347
rradius 100.493
rwrist -37.4276
rhand -3.47047 52.6317
rfingers 7.12502
rthumb 22.2624 23.894
lclavicle 2.94698e-014 -5.56597e-015
lhumerus -24.3093 16.5664 74.223
lradius 126.507
lwrist -22.7005
lhand -11.3751 -330.875
lfingers 7.12502
lthumb 14.6592 -661.413
rfemur -33.4669 5.47193 10.5206
rtibia 64.9624
rfoot -18.8517 -9.82933
rtoes -21.4743
lfemur -7.09379 14.3832 -36.821
ltibia 30.0036
lfoot -25.2322 7.68973
ltoes -16.8405
1606
root 13.4873 15.7247 -8.58273 -2700.9 -159.913 -169.437
lowerback 13.3117 -1.82698 -3.20039
upperback -2.84598 -3.84164 -7.4435
thorax -10.9795 -1.96039 -5.47608
lowerneck -1.2597 6.13261 -1.58137
upperneck 25.538 7.38146 4.96969
head 7.80278 3.71184 2.3977
rclavicle -4.75095e-014 -1.27222e-014
rhumerus -40.3679 1.33343 -71.3266
rradius 102.571
rwrist -38.898
rhand -3.06373 53.1001
rfingers 7.12502
rthumb 22.6528 24.4096
lclavicle -4.75095e-014 -1.27222e-014
lhumerus -27.2809 17.652 73.2486
lradius 125.466
lwrist -22.7671
lhand -11.1556 -330.33
lfingers 7.12502
lthumb 14.8706 -660.884
rfemur -31.0476 6.98644 13.0944
rtibia 63.0898
rfoot -18.232 -10.5299
rtoes -19.1448
lfemur -7.88724 13.4262 -33.935
ltibia 32.2081
lfoot -26.3406 11.1206
ltoes -17.5287
1607
root 13.5398 15.7525 -8.49148 -2699.76 -157.303 -172.943
lowerback 13.2776 -2.39709 -0.569323
upperback -3.13366 -4.0172 -6.13614
thorax -11.361 -2.1622 -5.48536
lowerneck -1.18554 7.09295 -1.96047
upperneck 25.5681 8.82628 4.51277
head 7.75765 4.31141 2.39218
rclavicle -3.54085e-014 -7.95139e-015
rhumerus -39.1817 2.49848 -69.9125
rradius 104.444
rwrist -40.1891
rhand -2.52702 53.3455
rfingers 7.12502
rthumb 23.1678 24.7188
lclavicle -3.54085e-014 -7.95139e-015
lhumerus -31.3698 20.093 71.7964
lradius 124.507
lwrist -23.0597
lhand -10.3466 -329.178
lfingers 7.12502
lthumb 15.6499 -659.791
rfemur -28.4834 8.26852 15.5674
rtibia 60.4739
rfoot -17.3703 -11.0419
rtoes -19.0784
lfemur -9.14014 12.2871 -31.0872
ltibia 35.0918
lfoot -27.1731 14.3153
ltoes -18.723
1608
root 13.573 15.7875 -8.39196 -2698.49 -155.088 -175.505
lowerback 12.8022 -2.52346 1.23289
upperback -3.31375 -3.78586 -5.40632
thorax -11.3217 -2.14396 -5.77251
lowerneck -1.20746 7.60253 -1.51445
upperneck 25.5302 9.56089 4.14067
head 7.77222 4.66084 2.24282
rclavicle 3.0265e-014 -4.85035e-014
rhumerus -38.3808 2.03785 -68.2786
rradius 106.17
rwrist -40.9421
rhand -2.04154 53.37
rfingers 7.12502
rthumb 23.6336 24.8026
lclavicle 3.0265e-014 -4.85035e-014
lhumerus -34.7494 21.0715 70.572
lradius 123.192
lwrist -23.3381
lhand -8.8852 -328.114
lfingers 7.12502
lthumb 17.0569 -658.843
rfemur -25.9474 8.61173 16.7998
rtibia 57.1334
rfoot -16.4039 -10.3363
rtoes -25.3551
lfemur -10.941 11.2863 -29.2505
ltibia 38.593
lfoot -27.2587 17.025
ltoes -20.5422
1609
root 13.5892 15.8416 -8.28385 -2697.32 -153.259 -176.894
lowerback 11.9428 -2.45786 1.84544
upperback -3.56194 -3.54691 -4.97307
thorax -11.0676 -2.05307 -5.71571
lowerneck -1.11008 7.97178 -1.07241
upperneck 25.5025 10.0579 3.96435
head 7.76891 4.9157 2.13941
rclavicle -4.52235e-015 4.45278e-014
rhumerus -37.8263 1.26165 -66.6139
rradius 107.633
rwrist -40.417
rhand -2.72208 53.0395
rfingers 7.12502
rthumb 22.9807 24.3894
lclavicle -4.52235e-015 4.45278e-014
lhumerus -37.8212 21.6045 69.769
lradius 121.536
lwrist -23.8772
lhand -7.17947 -327.52
lfingers 7.12502
lthumb 18.6982 -658.399
rfemur -23.5722 8.06102 16.6884
rtibia 53.0872
rfoot -17.9394 -6.93309
rtoes -29.5353
lfemur -13.7786 11.8093 -28.3493
ltibia 43.1162
lfoot -26.161 18.1386
ltoes -22.5743
